<?xml version="1.0" encoding="utf-8"?>
<!-- Generator: Adobe Illustrator 22.1.0, SVG Export Plug-In . SVG Version: 6.00 Build 0)  -->
<svg version="1.1" id="Layer_1" xmlns="http://www.w3.org/2000/svg" xmlns:xlink="http://www.w3.org/1999/xlink" x="0px" y="0px"
	 viewBox="0 0 671 226" style="enable-background:new 0 0 671 226;" xml:space="preserve">
<style type="text/css">
	.st0{fill:#1E90FF;}
	.st1{fill:#DDE1DE;}
	.st2{fill:none;stroke:#FFFFFF;stroke-width:0.5;stroke-miterlimit:10;}
	.st3{fill:none;}
	.st4{fill:#0F8B93;}
	.st5{fill:#AD7000;}
	.st6{fill:#C5CCC7;}
	.st7{fill:#FFC000;}
	.st8{fill:#FF2414;}
	.st9{fill:#034A88;}
	.st10{fill:#24A02E;}
	.st11{opacity:0.29;fill:#3F3F3F;enable-background:new    ;}
	.st12{fill:#859489;}
	.st13{fill:#ED3225;stroke:#FFFFFF;stroke-miterlimit:10;}
	.st14{fill:none;stroke:#FFFFFF;stroke-width:5;stroke-miterlimit:10;}
	.st15{enable-background:new    ;}
</style>
<g id="Layer_1_1_">
	<rect x="-3202" y="-1749.8" class="st0" width="1989.1" height="836.4"/>
	<rect x="-2848.9" y="2231" class="st1" width="2432.5" height="539.1"/>
	<g>
		<line class="st2" x1="-3342.1" y1="-1710.9" x2="-4013.6" y2="-562.6"/>
		<line class="st2" x1="-3333.8" y1="-1712.5" x2="-4005.3" y2="-564.2"/>
		<line class="st2" x1="-3325.6" y1="-1714.1" x2="-3997.1" y2="-565.8"/>
		<line class="st2" x1="-3317.3" y1="-1715.7" x2="-3988.8" y2="-567.4"/>
		<line class="st2" x1="-3309.1" y1="-1717.4" x2="-3980.6" y2="-569"/>
		<line class="st2" x1="-3300.9" y1="-1719" x2="-3972.4" y2="-570.6"/>
		<line class="st2" x1="-3292.6" y1="-1720.6" x2="-3964.1" y2="-572.2"/>
		<line class="st2" x1="-3284.4" y1="-1722.2" x2="-3955.9" y2="-573.8"/>
		<line class="st2" x1="-3276.2" y1="-1723.8" x2="-3947.7" y2="-575.5"/>
		<line class="st2" x1="-3267.9" y1="-1725.4" x2="-3939.4" y2="-577.1"/>
		<line class="st2" x1="-3259.7" y1="-1727" x2="-3931.2" y2="-578.7"/>
		<line class="st2" x1="-3251.5" y1="-1728.6" x2="-3923" y2="-580.3"/>
		<line class="st2" x1="-3243.2" y1="-1730.2" x2="-3914.7" y2="-581.9"/>
		<line class="st2" x1="-3235" y1="-1731.8" x2="-3906.5" y2="-583.5"/>
		<line class="st2" x1="-3226.7" y1="-1733.5" x2="-3898.2" y2="-585.1"/>
		<line class="st2" x1="-3218.5" y1="-1735.1" x2="-3890" y2="-586.7"/>
		<line class="st2" x1="-3210.3" y1="-1736.7" x2="-3881.8" y2="-588.3"/>
		<line class="st2" x1="-3202" y1="-1738.3" x2="-3873.5" y2="-589.9"/>
		<line class="st2" x1="-3193.8" y1="-1739.9" x2="-3865.3" y2="-591.6"/>
		<line class="st2" x1="-3185.6" y1="-1741.5" x2="-3857.1" y2="-593.2"/>
		<line class="st2" x1="-3177.3" y1="-1743.1" x2="-3848.8" y2="-594.8"/>
		<line class="st2" x1="-3169.1" y1="-1744.7" x2="-3840.6" y2="-596.4"/>
		<line class="st2" x1="-3160.9" y1="-1746.3" x2="-3832.4" y2="-598"/>
		<line class="st2" x1="-3152.6" y1="-1747.9" x2="-3824.1" y2="-599.6"/>
		<line class="st2" x1="-3144.4" y1="-1749.6" x2="-3815.9" y2="-601.2"/>
		<line class="st2" x1="-3136.1" y1="-1751.2" x2="-3807.7" y2="-602.8"/>
		<line class="st2" x1="-3127.9" y1="-1752.8" x2="-3799.4" y2="-604.4"/>
		<line class="st2" x1="-3119.7" y1="-1754.4" x2="-3791.2" y2="-606"/>
		<line class="st2" x1="-3111.4" y1="-1756" x2="-3782.9" y2="-607.7"/>
		<line class="st2" x1="-3103.2" y1="-1757.6" x2="-3774.7" y2="-609.3"/>
		<line class="st2" x1="-3095" y1="-1759.2" x2="-3766.5" y2="-610.9"/>
		<line class="st2" x1="-3086.7" y1="-1760.8" x2="-3758.2" y2="-612.5"/>
		<line class="st2" x1="-3078.5" y1="-1762.4" x2="-3750" y2="-614.1"/>
		<line class="st2" x1="-3070.3" y1="-1764.1" x2="-3741.8" y2="-615.7"/>
		<line class="st2" x1="-3062" y1="-1765.7" x2="-3733.5" y2="-617.3"/>
		<line class="st2" x1="-3053.8" y1="-1767.3" x2="-3725.3" y2="-618.9"/>
		<line class="st2" x1="-3045.6" y1="-1768.9" x2="-3717.1" y2="-620.5"/>
		<line class="st2" x1="-3037.3" y1="-1770.5" x2="-3708.8" y2="-622.2"/>
		<line class="st2" x1="-3029.1" y1="-1772.1" x2="-3700.6" y2="-623.8"/>
		<line class="st2" x1="-3020.8" y1="-1773.7" x2="-3692.3" y2="-625.4"/>
		<line class="st2" x1="-3012.6" y1="-1775.3" x2="-3684.1" y2="-627"/>
		<line class="st2" x1="-3004.4" y1="-1776.9" x2="-3675.9" y2="-628.6"/>
		<line class="st2" x1="-2996.1" y1="-1778.5" x2="-3667.6" y2="-630.2"/>
		<line class="st2" x1="-2987.9" y1="-1780.2" x2="-3659.4" y2="-631.8"/>
		<line class="st2" x1="-2979.7" y1="-1781.8" x2="-3651.2" y2="-633.4"/>
		<line class="st2" x1="-2971.4" y1="-1783.4" x2="-3642.9" y2="-635"/>
		<line class="st2" x1="-2963.2" y1="-1785" x2="-3634.7" y2="-636.6"/>
		<line class="st2" x1="-2955" y1="-1786.6" x2="-3626.5" y2="-638.3"/>
		<line class="st2" x1="-2946.7" y1="-1788.2" x2="-3618.2" y2="-639.9"/>
		<line class="st2" x1="-2938.5" y1="-1789.8" x2="-3610" y2="-641.5"/>
		<line class="st2" x1="-2930.2" y1="-1791.4" x2="-3601.7" y2="-643.1"/>
		<line class="st2" x1="-2922" y1="-1793" x2="-3593.5" y2="-644.7"/>
		<line class="st2" x1="-2913.8" y1="-1794.6" x2="-3585.3" y2="-646.3"/>
		<line class="st2" x1="-2905.5" y1="-1796.3" x2="-3577" y2="-647.9"/>
		<line class="st2" x1="-2897.3" y1="-1797.9" x2="-3568.8" y2="-649.5"/>
		<line class="st2" x1="-2889.1" y1="-1799.5" x2="-3560.6" y2="-651.1"/>
		<line class="st2" x1="-2880.8" y1="-1801.1" x2="-3552.3" y2="-652.7"/>
		<line class="st2" x1="-2872.6" y1="-1802.7" x2="-3544.1" y2="-654.4"/>
		<line class="st2" x1="-2864.4" y1="-1804.3" x2="-3535.9" y2="-656"/>
		<line class="st2" x1="-2856.1" y1="-1805.9" x2="-3527.6" y2="-657.6"/>
		<line class="st2" x1="-2847.9" y1="-1807.5" x2="-3519.4" y2="-659.2"/>
		<line class="st2" x1="-2839.6" y1="-1809.1" x2="-3511.1" y2="-660.8"/>
		<line class="st2" x1="-2831.4" y1="-1810.8" x2="-3502.9" y2="-662.4"/>
		<line class="st2" x1="-2823.2" y1="-1812.4" x2="-3494.7" y2="-664"/>
		<line class="st2" x1="-2814.9" y1="-1814" x2="-3486.4" y2="-665.6"/>
		<line class="st2" x1="-2806.7" y1="-1815.6" x2="-3478.2" y2="-667.2"/>
		<line class="st2" x1="-2798.5" y1="-1817.2" x2="-3470" y2="-668.9"/>
		<line class="st2" x1="-2790.2" y1="-1818.8" x2="-3461.7" y2="-670.5"/>
		<line class="st2" x1="-2782" y1="-1820.4" x2="-3453.5" y2="-672.1"/>
		<line class="st2" x1="-2773.8" y1="-1822" x2="-3445.3" y2="-673.7"/>
		<line class="st2" x1="-2765.5" y1="-1823.6" x2="-3437" y2="-675.3"/>
		<line class="st2" x1="-2757.3" y1="-1825.2" x2="-3428.8" y2="-676.9"/>
		<line class="st2" x1="-2749" y1="-1826.9" x2="-3420.5" y2="-678.5"/>
		<line class="st2" x1="-2740.8" y1="-1828.5" x2="-3412.3" y2="-680.1"/>
		<line class="st2" x1="-2732.6" y1="-1830.1" x2="-3404.1" y2="-681.7"/>
		<line class="st2" x1="-2724.3" y1="-1831.7" x2="-3395.8" y2="-683.3"/>
		<line class="st2" x1="-2716.1" y1="-1833.3" x2="-3387.6" y2="-685"/>
		<line class="st2" x1="-2707.9" y1="-1834.9" x2="-3379.4" y2="-686.6"/>
		<line class="st2" x1="-2699.6" y1="-1836.5" x2="-3371.1" y2="-688.2"/>
		<line class="st2" x1="-2691.4" y1="-1838.1" x2="-3362.9" y2="-689.8"/>
		<line class="st2" x1="-2683.2" y1="-1839.7" x2="-3354.7" y2="-691.4"/>
		<line class="st2" x1="-2674.9" y1="-1841.3" x2="-3346.4" y2="-693"/>
		<line class="st2" x1="-2666.7" y1="-1843" x2="-3338.2" y2="-694.6"/>
		<line class="st2" x1="-2658.5" y1="-1844.6" x2="-3330" y2="-696.2"/>
		<line class="st2" x1="-2650.2" y1="-1846.2" x2="-3321.7" y2="-697.8"/>
		<line class="st2" x1="-2642" y1="-1847.8" x2="-3313.5" y2="-699.4"/>
		<line class="st2" x1="-2633.7" y1="-1849.4" x2="-3305.2" y2="-701.1"/>
		<line class="st2" x1="-2625.5" y1="-1851" x2="-3297" y2="-702.7"/>
		<line class="st2" x1="-2617.3" y1="-1852.6" x2="-3288.8" y2="-704.3"/>
		<line class="st2" x1="-2609" y1="-1854.2" x2="-3280.5" y2="-705.9"/>
		<line class="st2" x1="-2600.8" y1="-1855.8" x2="-3272.3" y2="-707.5"/>
		<line class="st2" x1="-2592.6" y1="-1857.5" x2="-3264.1" y2="-709.1"/>
		<line class="st2" x1="-2584.3" y1="-1859.1" x2="-3255.8" y2="-710.7"/>
		<line class="st2" x1="-2576.1" y1="-1860.7" x2="-3247.6" y2="-712.3"/>
		<line class="st2" x1="-2567.9" y1="-1862.3" x2="-3239.4" y2="-713.9"/>
		<line class="st2" x1="-2559.6" y1="-1863.9" x2="-3231.1" y2="-715.6"/>
		<line class="st2" x1="-2551.4" y1="-1865.5" x2="-3222.9" y2="-717.2"/>
		<line class="st2" x1="-2543.1" y1="-1867.1" x2="-3214.6" y2="-718.8"/>
		<line class="st2" x1="-2534.9" y1="-1868.7" x2="-3206.4" y2="-720.4"/>
		<line class="st2" x1="-2526.7" y1="-1870.3" x2="-3198.2" y2="-722"/>
		<line class="st2" x1="-2518.4" y1="-1871.9" x2="-3189.9" y2="-723.6"/>
		<line class="st2" x1="-2510.2" y1="-1873.6" x2="-3181.7" y2="-725.2"/>
		<line class="st2" x1="-2502" y1="-1875.2" x2="-3173.5" y2="-726.8"/>
		<line class="st2" x1="-2493.7" y1="-1876.8" x2="-3165.2" y2="-728.4"/>
		<line class="st2" x1="-2485.5" y1="-1878.4" x2="-3157" y2="-730"/>
		<line class="st2" x1="-2477.3" y1="-1880" x2="-3148.8" y2="-731.7"/>
		<line class="st2" x1="-2469" y1="-1881.6" x2="-3140.5" y2="-733.3"/>
		<line class="st2" x1="-2460.8" y1="-1883.2" x2="-3132.3" y2="-734.9"/>
		<line class="st2" x1="-2452.5" y1="-1884.8" x2="-3124" y2="-736.5"/>
		<line class="st2" x1="-2444.3" y1="-1886.4" x2="-3115.8" y2="-738.1"/>
		<line class="st2" x1="-2436.1" y1="-1888" x2="-3107.6" y2="-739.7"/>
		<line class="st2" x1="-2427.8" y1="-1889.7" x2="-3099.3" y2="-741.3"/>
		<line class="st2" x1="-2419.6" y1="-1891.3" x2="-3091.1" y2="-742.9"/>
		<line class="st2" x1="-2411.4" y1="-1892.9" x2="-3082.9" y2="-744.5"/>
		<line class="st2" x1="-2403.1" y1="-1894.5" x2="-3074.6" y2="-746.1"/>
		<line class="st2" x1="-2394.9" y1="-1896.1" x2="-3066.4" y2="-747.8"/>
		<line class="st2" x1="-2386.7" y1="-1897.7" x2="-3058.2" y2="-749.4"/>
		<line class="st2" x1="-2378.4" y1="-1899.3" x2="-3049.9" y2="-751"/>
		<line class="st2" x1="-2370.2" y1="-1900.9" x2="-3041.7" y2="-752.6"/>
		<line class="st2" x1="-2361.9" y1="-1902.5" x2="-3033.4" y2="-754.2"/>
		<line class="st2" x1="-2353.7" y1="-1904.2" x2="-3025.2" y2="-755.8"/>
		<line class="st2" x1="-2345.5" y1="-1905.8" x2="-3017" y2="-757.4"/>
		<line class="st2" x1="-2337.2" y1="-1907.4" x2="-3008.7" y2="-759"/>
		<line class="st2" x1="-2329" y1="-1909" x2="-3000.5" y2="-760.6"/>
		<line class="st2" x1="-2320.8" y1="-1910.6" x2="-2992.3" y2="-762.3"/>
		<line class="st2" x1="-2312.5" y1="-1912.2" x2="-2984" y2="-763.9"/>
		<line class="st2" x1="-2304.3" y1="-1913.8" x2="-2975.8" y2="-765.5"/>
		<line class="st2" x1="-2296.1" y1="-1915.4" x2="-2967.6" y2="-767.1"/>
		<line class="st2" x1="-2287.8" y1="-1917" x2="-2959.3" y2="-768.7"/>
		<line class="st2" x1="-2279.6" y1="-1918.6" x2="-2951.1" y2="-770.3"/>
		<line class="st2" x1="-2271.4" y1="-1920.3" x2="-2942.9" y2="-771.9"/>
		<line class="st2" x1="-2263.1" y1="-1921.9" x2="-2934.6" y2="-773.5"/>
		<line class="st2" x1="-2254.9" y1="-1923.5" x2="-2926.4" y2="-775.1"/>
		<line class="st2" x1="-2246.6" y1="-1925.1" x2="-2918.1" y2="-776.7"/>
		<line class="st2" x1="-2238.4" y1="-1926.7" x2="-2909.9" y2="-778.4"/>
		<line class="st2" x1="-2230.2" y1="-1928.3" x2="-2901.7" y2="-780"/>
		<line class="st2" x1="-2221.9" y1="-1929.9" x2="-2893.4" y2="-781.6"/>
		<line class="st2" x1="-2213.7" y1="-1931.5" x2="-2885.2" y2="-783.2"/>
		<line class="st2" x1="-2205.5" y1="-1933.1" x2="-2877" y2="-784.8"/>
		<line class="st2" x1="-2197.2" y1="-1934.7" x2="-2868.7" y2="-786.4"/>
		<line class="st2" x1="-2189" y1="-1936.4" x2="-2860.5" y2="-788"/>
		<line class="st2" x1="-2180.8" y1="-1938" x2="-2852.3" y2="-789.6"/>
		<line class="st2" x1="-2172.5" y1="-1939.6" x2="-2844" y2="-791.2"/>
		<line class="st2" x1="-2164.3" y1="-1941.2" x2="-2835.8" y2="-792.8"/>
		<line class="st2" x1="-2156" y1="-1942.8" x2="-2827.5" y2="-794.5"/>
		<line class="st2" x1="-2147.8" y1="-1944.4" x2="-2819.3" y2="-796.1"/>
		<line class="st2" x1="-2139.6" y1="-1946" x2="-2811.1" y2="-797.7"/>
		<line class="st2" x1="-2131.3" y1="-1947.6" x2="-2802.8" y2="-799.3"/>
		<line class="st2" x1="-2123.1" y1="-1949.2" x2="-2794.6" y2="-800.9"/>
		<line class="st2" x1="-2114.9" y1="-1950.9" x2="-2786.4" y2="-802.5"/>
		<line class="st2" x1="-2106.6" y1="-1952.5" x2="-2778.1" y2="-804.1"/>
		<line class="st2" x1="-2098.4" y1="-1954.1" x2="-2769.9" y2="-805.7"/>
		<line class="st2" x1="-2090.2" y1="-1955.7" x2="-2761.7" y2="-807.3"/>
		<line class="st2" x1="-2081.9" y1="-1957.3" x2="-2753.4" y2="-809"/>
		<line class="st2" x1="-2073.7" y1="-1958.9" x2="-2745.2" y2="-810.6"/>
		<line class="st2" x1="-2065.4" y1="-1960.5" x2="-2736.9" y2="-812.2"/>
		<line class="st2" x1="-2057.2" y1="-1962.1" x2="-2728.7" y2="-813.8"/>
		<line class="st2" x1="-2049" y1="-1963.7" x2="-2720.5" y2="-815.4"/>
		<line class="st2" x1="-2040.7" y1="-1965.3" x2="-2712.2" y2="-817"/>
		<line class="st2" x1="-2032.5" y1="-1967" x2="-2704" y2="-818.6"/>
		<line class="st2" x1="-2024.3" y1="-1968.6" x2="-2695.8" y2="-820.2"/>
		<line class="st2" x1="-2016" y1="-1970.2" x2="-2687.5" y2="-821.8"/>
		<line class="st2" x1="-2007.8" y1="-1971.8" x2="-2679.3" y2="-823.4"/>
		<line class="st2" x1="-1999.6" y1="-1973.4" x2="-2671.1" y2="-825.1"/>
		<line class="st2" x1="-1991.3" y1="-1975" x2="-2662.8" y2="-826.7"/>
		<line class="st2" x1="-1983.1" y1="-1976.6" x2="-2654.6" y2="-828.3"/>
		<line class="st2" x1="-1974.8" y1="-1978.2" x2="-2646.3" y2="-829.9"/>
		<line class="st2" x1="-1966.6" y1="-1979.8" x2="-2638.1" y2="-831.5"/>
		<line class="st2" x1="-1958.4" y1="-1981.4" x2="-2629.9" y2="-833.1"/>
		<line class="st2" x1="-1950.1" y1="-1983.1" x2="-2621.6" y2="-834.7"/>
		<line class="st2" x1="-1941.9" y1="-1984.7" x2="-2613.4" y2="-836.3"/>
		<line class="st2" x1="-1933.7" y1="-1986.3" x2="-2605.2" y2="-837.9"/>
		<line class="st2" x1="-1925.4" y1="-1987.9" x2="-2596.9" y2="-839.5"/>
		<line class="st2" x1="-1917.2" y1="-1989.5" x2="-2588.7" y2="-841.2"/>
		<line class="st2" x1="-1909" y1="-1991.1" x2="-2580.5" y2="-842.8"/>
		<line class="st2" x1="-1900.7" y1="-1992.7" x2="-2572.2" y2="-844.4"/>
		<line class="st2" x1="-1892.5" y1="-1994.3" x2="-2564" y2="-846"/>
		<line class="st2" x1="-1884.3" y1="-1995.9" x2="-2555.8" y2="-847.6"/>
		<line class="st2" x1="-1876" y1="-1997.6" x2="-2547.5" y2="-849.2"/>
		<line class="st2" x1="-1867.8" y1="-1999.2" x2="-2539.3" y2="-850.8"/>
		<line class="st2" x1="-1859.5" y1="-2000.8" x2="-2531" y2="-852.4"/>
		<line class="st2" x1="-1851.3" y1="-2002.4" x2="-2522.8" y2="-854"/>
		<line class="st2" x1="-1843.1" y1="-2004" x2="-2514.6" y2="-855.7"/>
		<line class="st2" x1="-1834.8" y1="-2005.6" x2="-2506.3" y2="-857.3"/>
		<line class="st2" x1="-1826.6" y1="-2007.2" x2="-2498.1" y2="-858.9"/>
		<line class="st2" x1="-1818.4" y1="-2008.8" x2="-2489.9" y2="-860.5"/>
		<line class="st2" x1="-1810.1" y1="-2010.4" x2="-2481.6" y2="-862.1"/>
		<line class="st2" x1="-1801.9" y1="-2012" x2="-2473.4" y2="-863.7"/>
		<line class="st2" x1="-1793.7" y1="-2013.7" x2="-2465.2" y2="-865.3"/>
		<line class="st2" x1="-1785.4" y1="-2015.3" x2="-2456.9" y2="-866.9"/>
		<line class="st2" x1="-1777.2" y1="-2016.9" x2="-2448.7" y2="-868.5"/>
		<line class="st2" x1="-1768.9" y1="-2018.5" x2="-2440.4" y2="-870.1"/>
	</g>
	
		<rect x="-2699" y="-39" transform="matrix(0.9814 -0.1919 0.1919 0.9814 -94.8291 -289.2301)" class="st3" width="2316.8" height="767.9"/>
	<g>
		<rect x="-2673.9" y="1347.7" class="st4" width="510.3" height="606.3"/>
	</g>
	<rect x="-1634.6" y="697" class="st0" width="505.5" height="641.5"/>
	<rect x="-1633.5" y="1351.3" class="st5" width="505.5" height="601.5"/>
	<rect x="-1113.9" y="695.4" class="st6" width="505.5" height="643.1"/>
	<rect x="-2152" y="695.4" class="st7" width="505.5" height="643.1"/>
	<rect x="-2671.5" y="695.4" class="st8" width="505.5" height="643.1"/>
	<rect x="-2152" y="1351.3" class="st9" width="505.5" height="601.5"/>
	<rect x="-1113.6" y="1351.3" class="st10" width="505.5" height="601.5"/>
	<rect x="-1113.6" y="1761.1" class="st11" width="505.5" height="191.8"/>
	<rect x="-2152" y="1761.1" class="st11" width="505.5" height="191.8"/>
	<rect x="-1633.5" y="1761.1" class="st11" width="505.5" height="191.8"/>
	<rect x="-2673.9" y="1759.1" class="st11" width="505.5" height="191.8"/>
	<rect x="-1634.6" y="1147.2" class="st11" width="505.5" height="191.8"/>
	<rect x="-2152" y="1147.2" class="st11" width="505.5" height="191.8"/>
	<rect x="-2671.5" y="1147.2" class="st11" width="505.5" height="191.8"/>
	<rect x="-1113.9" y="1147.2" class="st11" width="505.5" height="191.8"/>
	<rect x="-2804" y="2632" class="st12" width="2336" height="112"/>
	<g>
		<path class="st13" d="M23.3,126.4l-21.9-0.1l-0.3,95l19.7,0.1c14.6,0.1,25.8-1.9,35.1-8.5c11.2-7.9,18.5-22.4,18.6-38.7
			C74.5,145.7,56.1,126.5,23.3,126.4z M23.1,208.5h-7.8l0.3-69.6l9.5,0.1c22.3,0.1,34.9,14.3,34.8,35.1
			C59.8,196.1,47.2,208.6,23.1,208.5z"/>
		<polygon class="st13" points="549.3,173.1 501.3,172.9 501.4,128.1 486.5,128 486.1,222.5 501.1,222.6 501.2,186.6 549.3,186.8 
			549.2,222.8 564.1,222.8 564.5,128.3 549.5,128.2 		"/>
		<polygon class="st13" points="651,128.6 623,172.1 595.5,128.4 578,128.3 615.2,185.6 615.1,223 630.2,223.1 630.3,185.3 
			630.5,185 668,128.7 		"/>
		<path class="st13" d="M428.5,184.4l24.2,0.1l-0.1,19.6l-0.5,0.4c-6.4,4.7-15,7.4-23.7,7.3c-19.7-0.1-33.4-14.5-33.3-35.2
			c0.1-19.4,14.4-34.9,32.1-34.8c11.9,0,19.3,3.9,26.3,9.7l9-10.6c-10.2-8.4-20.3-11.8-34.6-11.9c-26.7-0.1-47.6,20.8-47.7,47.5
			c-0.1,28.2,19.5,47.8,47.7,47.9c17.7,0.1,30.5-7.5,38.3-13.9l0.1-37.9l-37.8-0.1V184.4z"/>
		<path class="st13" d="M137,127.1c-27.5-0.1-48.3,20.3-48.4,47.4c-0.1,27.3,20.4,47.7,47.8,47.8c27.5,0.1,48.3-20.3,48.4-47.4
			C185,147.6,164.4,127.1,137,127.1z M136.7,209.5c-18.7-0.1-33.3-15.4-33.2-35c0.1-20,14.3-34.8,33.2-34.7
			c18.7,0,33.3,15.4,33.2,35C169.9,194.7,155.6,209.5,136.7,209.5z"/>
		<polygon class="st13" points="260.9,190.1 201.2,127.4 200.1,127.4 200.1,222 213.8,222 213.8,160.7 273.6,223.4 274.7,223.4 
			274.7,128.8 260.9,128.8 		"/>
		<polygon class="st13" points="111.3,36.7 168.1,97.1 169.2,97.1 169.2,2.5 155.5,2.5 155.5,63.8 98.7,1.1 97.6,1.1 97.6,95.7 
			111.3,95.7 		"/>
		<path class="st13" d="M243.1,87.8c11-7.8,18.2-22,18.3-38.1c0.1-27.9-18-46.8-50.3-46.9l-21.6-0.1l-0.3,93.4l19.3,0.1
			C223,96.2,233.9,94.3,243.1,87.8z M203.5,15.1h9.4c21.9,0.1,34.3,14.1,34.2,34.5c-0.1,21.7-12.5,34.1-36.2,34h-7.7L203.5,15.1z"/>
		<polygon class="st13" points="415.5,83.6 376.3,83.4 376.4,54.9 404.5,55.1 404.5,42 376.5,41.9 376.6,16 408.1,16.1 408.4,3.5 
			362.6,3.3 362.3,96.7 415.4,96.9 		"/>
		<polygon class="st13" points="539.2,3.9 525,3.9 498.7,70.4 485.2,38.1 500.6,3.8 487.7,3.8 479.1,24.4 470.7,3.7 456.3,3.7 
			472.1,39.1 458.7,69.7 432.6,3.6 418.1,3.5 457.4,100.7 478.1,51.8 498.8,100.7 		"/>
		<path class="st13" d="M291,56.2h3c4.2,0,7.3,0.5,9,1.5c1.8,1,3.8,2.6,6,4.8c2.2,2.2,4.7,5.2,7.4,9l8.5,14l2.6,3.7
			c0.4,0.5,0.6,0.9,0.8,1.1l4.1,6.3h16.7l-5.3-7.3c-1.9-2.6-4.5-6.6-7.7-11.8c-5.1-8.3-9-14.2-11.9-17.6c-2.4-2.9-4.9-5.3-7.5-7.2
			l-0.6-0.4l0.7-0.3c4.4-1.9,7.9-4.7,10.4-8.3c2.7-3.9,4.1-8.7,4.2-14.1c0-8-2.8-14.4-8.3-19.1S310,3.4,300.6,3.4l-23.5-0.1
			l-0.3,93.1l14,0.1L291,56.2z M291.2,15.3h3.6c6.4,0,11,0.5,13.8,1.5c2.7,1,4.8,2.6,6.3,4.9s2.2,4.9,2.2,7.7c0,2.9-0.7,5.4-2.1,7.7
			c-1.3,2.2-3.2,3.9-5.7,5c-2.4,1.1-7,1.7-13.6,1.6h-4.6L291.2,15.3z"/>
		<path class="st13" d="M333.7,125.8h-2.3l-42.1,96.4l-0.2,0.3h13.7L313,199h38.6l10.1,23.3l0.1,0.1h13.7L333.7,125.8L333.7,125.8z
			 M319.1,185.1l13.3-30.5l13.2,30.5H319.1z"/>
		<path class="st13" d="M45.6-1h-2.3L1.2,95.3L1,95.7h13.7L25,72.2h38.6l10.1,23.3l0.1,0.1h13.7L45.7-0.9L45.6-1z M31.1,58.3
			l13.3-30.5l13.2,30.5H31.1z"/>
	</g>
	<line class="st14" x1="-776" y1="192" x2="-700" y2="192"/>
	<line class="st14" x1="-776" y1="206.5" x2="-700" y2="206.5"/>
	<line class="st14" x1="-776" y1="221.5" x2="-700" y2="221.5"/>
	<path class="st1" d="M-2486,643h-288v-57h288c14.8,0,26.7,12,26.7,26.7v3.6l0,0C-2459.3,631-2471.2,643-2486,643z"/>
	<text transform="matrix(1 0 0 1 -2663.998 627.4609)" style="font-family:'Gotham-Light'; font-size:44px;">Projects</text>
	<text transform="matrix(1 0 0 1 -955 225)" style="font-family:'Gotham-Book'; font-size:53px;">MENU</text>
</g>
<g id="Layer_2_1_">
</g>
<g id="Layer_3">
</g>
<rect x="-2584.3" y="-913.4" class="st0" width="1989.1" height="836.4"/>
</svg>
